<svg id="Capa_1" enable-background="new 0 0 512 512" height="512" viewBox="0 0 512 512" width="512" xmlns="http://www.w3.org/2000/svg"><g><path d="m158.503 327.592-33.653 33.653c1.462.661 2.816 1.568 3.994 2.745l19.165 19.165c1.178 1.178 2.085 2.532 2.745 3.994l33.653-33.653c-4.71-3.824-9.268-7.903-13.635-12.27-4.366-4.367-8.445-8.924-12.269-13.634z" fill="#b5dcff"/><path d="m139.102 374.246 32.355-32.355c-.226-.224-.458-.44-.683-.665-4.367-4.367-8.446-8.925-12.27-13.635l-33.652 33.653c1.462.661 2.816 1.568 3.994 2.745z" fill="#8bcaff"/><circle cx="310.778" cy="201.222" fill="#dbedff" r="201.222"/><path d="m213.386 343.507c-78.582-78.582-78.582-205.988 0-284.57 33.572-33.572 76.058-52.788 119.839-57.675-58.696-6.551-119.722 12.665-164.732 57.675-78.582 78.582-78.582 205.988 0 284.57 45.01 45.009 106.036 64.225 164.732 57.675-43.782-4.887-86.267-24.103-119.839-57.675z" fill="#b5dcff"/><path d="m128.005 424.78-.142-4.293-35.799-36.492h-4.845l-82.741 82.741c-5.97 5.97-5.97 15.65 0 21.62l19.165 19.165c5.971 5.97 15.65 5.971 21.62 0z" fill="#ff8086"/><path d="m14.717 498.595 95.795-95.795-18.448-18.805h-4.845l-82.741 82.741c-5.97 5.97-5.97 15.65 0 21.62z" fill="#e5646e"/><path d="m128.005 424.78 21.966-21.966c5.971-5.97 5.971-15.65 0-21.621l-19.165-19.165c-5.97-5.97-15.65-5.97-21.621 0l-21.966 21.967z" fill="#e5646e"/><path d="m141.045 372.267-10.239-10.239c-5.97-5.97-15.65-5.97-21.621 0l-21.966 21.967 21.049 21.049z" fill="#db4655"/><circle cx="310.778" cy="201.222" fill="#3f6d8e" r="163.4"/><g><path d="m373.864 109.572h-126.171c-4.267 0-7.726-3.459-7.726-7.726s3.459-7.726 7.726-7.726h126.171c4.267 0 7.726 3.459 7.726 7.726s-3.459 7.726-7.726 7.726z" fill="#64a6f4"/></g><g><path d="m367.28 142.124h-113.004c-4.267 0-7.726-3.459-7.726-7.726s3.459-7.726 7.726-7.726h113.004c4.267 0 7.726 3.459 7.726 7.726s-3.458 7.726-7.726 7.726z" fill="#64a6f4"/></g><g><path d="m350.822 174.676h-80.087c-4.267 0-7.726-3.459-7.726-7.726s3.459-7.726 7.726-7.726h80.087c4.267 0 7.726 3.459 7.726 7.726s-3.459 7.726-7.726 7.726z" fill="#64a6f4"/></g><path d="m240.13 316.763c-63.811-63.811-63.811-167.27 0-231.082 26.182-26.182 59.04-41.613 93.095-46.31-48.943-6.75-100.358 8.68-137.987 46.31-63.811 63.812-63.811 167.271 0 231.082 37.629 37.629 89.045 53.06 137.987 46.31-34.055-4.697-66.913-20.128-93.095-46.31z" fill="#365e7d"/><g><path d="m350.822 243.802h-80.087c-4.267 0-7.726-3.459-7.726-7.726s3.459-7.726 7.726-7.726h80.087c4.267 0 7.726 3.459 7.726 7.726s-3.459 7.726-7.726 7.726z" fill="#e5646e"/></g><g><path d="m367.28 276.354h-113.004c-4.267 0-7.726-3.459-7.726-7.726s3.459-7.726 7.726-7.726h113.004c4.267 0 7.726 3.459 7.726 7.726.001 4.266-3.458 7.726-7.726 7.726z" fill="#e5646e"/></g><g><path d="m373.864 308.905h-126.171c-4.267 0-7.726-3.459-7.726-7.726s3.459-7.726 7.726-7.726h126.171c4.267 0 7.726 3.459 7.726 7.726s-3.459 7.726-7.726 7.726z" fill="#e5646e"/></g><g><path d="m374.419 327.376c-4.267 0-7.726-3.459-7.726-7.726v-15.165c0-40.943-22.749-77.751-59.369-96.06-20.422-10.211-37.56-25.874-49.563-45.296-12.004-19.422-18.348-41.756-18.348-64.588v-15.165c0-4.267 3.459-7.726 7.726-7.726s7.726 3.459 7.726 7.726v15.165c0 40.942 22.749 77.751 59.369 96.062 20.422 10.21 37.56 25.873 49.563 45.295 12.004 19.422 18.348 41.756 18.348 64.587v15.165c0 4.266-3.459 7.726-7.726 7.726z" fill="#ff8086"/></g><g><path d="m247.138 327.376c-4.267 0-7.726-3.459-7.726-7.726v-15.165c0-22.831 6.345-45.165 18.348-64.587 12.004-19.422 29.142-35.085 49.563-45.295 36.62-18.311 59.369-55.12 59.369-96.062v-15.165c0-4.267 3.459-7.726 7.726-7.726s7.726 3.459 7.726 7.726v15.165c0 22.831-6.345 45.165-18.348 64.588-12.003 19.422-29.142 35.085-49.563 45.295-36.62 18.31-59.369 55.118-59.369 96.061v15.165c0 4.266-3.459 7.726-7.726 7.726z" fill="#7fb3fa"/></g></g></svg>