<svg id="Capa_1" enable-background="new 0 0 512 512" height="512" viewBox="0 0 512 512" width="512" xmlns="http://www.w3.org/2000/svg" xmlns:xlink="http://www.w3.org/1999/xlink"><linearGradient id="SVGID_1_" gradientUnits="userSpaceOnUse" x1="256" x2="256" y1="512" y2="0"><stop offset="0" stop-color="#00b59c"/><stop offset="1" stop-color="#9cffac"/></linearGradient><g><g><path d="m376 421c-8.284 0-15 6.716-15 15s6.716 15 15 15 15-6.716 15-15-6.716-15-15-15zm-180-60h-120c-8.284 0-15 6.716-15 15s6.716 15 15 15h120c8.284 0 15-6.716 15-15s-6.716-15-15-15zm15-285c0-8.284-6.716-15-15-15s-15 6.716-15 15c0 5.199-.781 10.182-2.188 15h-85.624c-1.407-4.818-2.188-9.801-2.188-15 0-8.284-6.716-15-15-15s-15 6.716-15 15c0 38.401 24.871 65.278 52.345 90-27.474 24.722-52.345 51.599-52.345 90 0 8.284 6.716 15 15 15s15-6.716 15-15c0-5.199.781-10.182 2.188-15h85.624c1.407 4.818 2.188 9.801 2.188 15 0 8.284 6.716 15 15 15s15-6.716 15-15c0-38.401-24.871-65.278-52.345-90 27.474-24.722 52.345-51.599 52.345-90zm-49.675 135h-50.651c7.286-8.523 16.045-16.752 25.325-25.016 9.282 8.264 18.04 16.493 25.326 25.016zm-25.325-64.984c-9.281-8.265-18.039-16.493-25.325-25.016h50.651c-7.287 8.523-16.045 16.752-25.326 25.016zm60 154.984h-120c-8.284 0-15 6.716-15 15s6.716 15 15 15h120c8.284 0 15-6.716 15-15s-6.716-15-15-15zm120 150c8.284 0 15-6.716 15-15s-6.716-15-15-15-15 6.716-15 15 6.716 15 15 15zm181-300h-166v-136c0-8.284-6.716-15-15-15h-301c-8.284 0-15 6.716-15 15v421c0 8.284 6.716 15 15 15h226v46c0 8.284 6.716 15 15 15h241c8.284 0 15-6.716 15-15v-331c0-8.284-6.716-15-15-15zm-256 15v255h-211v-391h271v121h-45c-8.284 0-15 6.716-15 15zm241 316h-211v-301h211zm-166-91c8.284 0 15-6.716 15-15s-6.716-15-15-15-15 6.716-15 15 6.716 15 15 15zm0-60h120c8.284 0 15-6.716 15-15v-90c0-8.284-6.716-15-15-15h-120c-8.284 0-15 6.716-15 15v90c0 8.284 6.716 15 15 15zm15-90h90v60h-90zm105 120c-8.284 0-15 6.716-15 15v60c0 8.284 6.716 15 15 15s15-6.716 15-15v-60c0-8.284-6.716-15-15-15zm-60 0c-8.284 0-15 6.716-15 15s6.716 15 15 15 15-6.716 15-15-6.716-15-15-15z" fill="url(#SVGID_1_)"/></g></g></svg>